<?xml version="1.0" encoding="utf-8"?><svg xmlns="http://www.w3.org/2000/svg" version="1.1" baseProfile="tiny" width="1200" height="800" viewBox="0 0 1200 800"><g><g stroke="#000000" stroke-width="1" fill="#383333"><ellipse transform="matrix(1, 0, 0, 1, 893.57, 786.82)" cx="0" cy="0" rx="3.78" ry="3.78" /><ellipse transform="matrix(1, 0, 0, 1, 897.44, 795)" cx="0" cy="0" rx="3.78" ry="3.78" /></g><g stroke="#7e7e7e" stroke-width=".98" fill="none"><path d="m808.42 251.99l-.96-.74-2.32-1.77-4.94-3.78-3.75-2.74-1.5-1.24-1.96-1.7-3.97-3.65-1.63-1.27-1.9-1.18-2.34-1.22-1.29-.54-2.13-.9-2.4-1.06-3.73-1.57-4.56-1.85-2.1-.93-4.34-1.78-2.99-1.23-2.83-1.25-1.48-.62-1.23-.4-1.36-.45-2.74-.6-1.8-.41-1.34-.2-1.11-.1-5.71-.38-2.22-.07-4.29-.51-3.21-.52-1.58-.33-1.57-.43-1.75-.46-4.76-1.39-2.79-.56-2.12-.48-1.44-.37-1.95-.59-1.81-.53-4.99-1.58-5.02-1.77-5.78-2.05-4.71-1.83-4.99-1.68-1.88-.49-5.85-1.54-2.75-.66-2.5-.57-3.71-.37-3.2-.08-7.37 1.13-3.08.84-2.12.44-16.74 3.87-2.81.46-1.04.17-.58.09-1.03.17-2.55-.05-4.31-1.17-4.78-2.01-.66-.33-7.95-4.06-4.75-1.52-5.59-2.02-10.38-4.48-10.58-3.73-4.74-1.01-9.63-1.02-8.75-.93-3.74-.67-1-.16-.99-.3-1.32-.44-1.84-.98-.95-.66-1.17-.91-.98-.94-2.4-2.34-1.87-1.62-1.98-2-1.95-2.21-4.61-5.96-8.5-10.26-.59-.57-.82-.34-1.02-.13-.57.03-.59.14-.38.2-.39.34-2.32 4.55-2.18 3.18-2.23 2.81-1.83 2.49-.72.81-.8.76-.66.45-.52.31-.58.29-.74.25-.21.05-1.46.34-10.67 2.46-1.77.48-2.58.68-2.76.86-1.31.51-1.09.43-2.1.8-1.85.59-.66.29-.93.52-1.12.67-2.95 1.7-6.56 5.46-4.38 2.45-6.37 3.28-2.05.74-7.66 1.46-6.01.44-3.46.55-9.31 1.65-3.2.13-4.6-.51-3.71-.77-5.6-1.33-1.94-.1-5.3.3-4.19.63-3.31.74-5.29 2.08-5.23 1.81-4.79 1.32-6.12 2.78-4.28 2.47-5.67 4.24-1.7 1.26-2.75 1.68-5.6 1.01-2.54.55-2.1.86-5.02 3.72-2.24.8-2.15.46-12.66-.48-14.32-.85-11.33-.81" /><path d="m697.4 413.06l-.26 1.42-.71 2.43-1.14 3.06-1.89 5.11-.36.96-1.03 3.32-.26 1.35-.03 1.31.12 3.94.1 1.32.17 1.02.23.6 1.18 1.29 3.88 3.29 2.7 2.35 2.02 1.23 5.6 2.75 8.84 2.95 2.57 1.11 1.38.89 6.43 4.49 10.17 8.51 4.95 4.24 5.71 4.39 7.24 5.1 3.73 2.21 4.01 2.54 6.3 3.7" /><path d="m466.42 544.28l5.55-8.16 2.74-3.92 2.53-3.71 2.8-3.99 1.56-2.13 2.12-2.89.98-1.33 2.74-3.73.89-1.09 1.16-1.33.71-.8.68-.71.86-.85 1.05-.99.81-.62 2.54-1.83 2.17-1.4 2.47-1.44 1.29-.73 1.34-.65 1.91-.92 1.95-.9 2.28-.89 2.11-.81 2.66-.83 3.31-1.23 2.27-.69 5.68-1.89 7.16-2.25 2.95-.96 4.21-1.26 1.38-.34 2.15-.53 1.2-.31 5.35-1.03 5.73-1.35 5.72-1.23 4.18-.9 7.11-1.46 6.63-1.59 3.51-.94 7.23-1.92 1.39-.45 3.26-1.06 6.23-2.89 7.93-5.06 7.1-4.81 2.26-1.53 2.17-1.62 2.76-1.92 4.48-3.02 2.11-1.79 4.23-4.19 1.64-1.77 2.96-3.2 2.82-3.14 7.06-7.86 4.84-4.8 2.8-2.6 2.82-2.18 2.71-1.6 3.28-1.2 2.86-.71 4.59-1.08 7.22-1.31 7.46-1.27 1.61-.24 1.92-.57 6.8-2.82 1.39-.92 3.26-1.92 2.2-1.44 2.38-1.8 2.31-2.07 2.33-2.4 3.25-3.72 3.43-4.55 1.58-2.44 1.27-2.19 2.94-6.07 2.64-5.46 2.63 1.26 3.98 1.69 1.42.36 1.45.25 7.85.9 6.79.78 1.64.14 5.14.57 4.78.68 3.85.58 3.39.42 2.55.31 3.64.22 10.48 1.19" /><path d="m821.96 170.24l-.94 4.87-.54 3.47-1.02 5.89-.66 4.02-.57 3.7-.12.63-.6 3.53-.64 3.82-.44 2.64-.59 3.63-.64 3.79-.81 4.92-.37 2.33-.57 3.61-.56 3.09-.52 3.17-.28 1.78-.41 2.57-1.17 6.95-.73 4.53-.17 1.06-.21 1.34-.2 1.27-.26 1.7-.52 3.44-.42 2.38-.85 4.77-.2 1.08-.29 1.85-.57 3.38-1.15 6.65-.26 1.67-2.94 18.73-1.15 7.24-2.38 14.1-.99 6.29-.26 1.56-1.94 11.52-1.55 9.64-.85 5.07-.29 1.22-.8 4.77-.31 1.54-1.23 7.53-1.01 6.87-1.25 7.83-.17.94-1.11 6.42-.48 2.39-.16.93-.87 5.68-.47 2.77-.36 2.1-.8 4.8-.36 2.24-.24 1.81-.29 2.29-1.27 7-.3 2.02-.36 2.26-.91 5.39-.25 1.49-.38 2.03-.09.51-.22 1.49-1.26 7.86-.88 5.91-.37 1.94-1.16 6.4-.8 4.39-.81 4.98-1.06 6.17-1.13 6.75-.77 4.5-.13.86-.57 3.74-.65 4.2-.47 2.61-.4 2.3-.41 2.43-.47 3.19-.42 2.21-.6 3.54-.69 4.06-.41 2.58-1.27 7.78-.91 5.33-.61 3.89-.66 4.62-.25 1.28-.3 2.77-.48 4.15-.03 1.19-.06 1.53-.16 4.05.04 5.31.19 4.44.11 7.86.09 4.68.07 3.2.14 4.73.12 4.07.14 2.79.17 2.98.12 2.05.17 1.42.34 2.11.09.48.68 3.45.65 2.55.27.97.81 2.17 2.62 6.27.41.89.65 1.15 1.04 2.09 2.09 4.19 2.3 4.61 1.15 2.29 2.9 5.8 2.89 5.77 1.61 3.25 1.56 3.04 2.81 5.37 1.59 3.13 1.2 2.4" /><path d="m627.23 5l-3.59 9.67-1.67 4.49-.31.84-1.36 4.59-.98 3.51-2.32 5.85-.3 1.05-1.37 5.35-.2 2.01-.81 4.22-3.19 12.15-2.53 7.69-3.57 5.72-1.58 1.81-2.05 2.76-4.93 3.97-6.57 4.77-5.15 4.18-4 3.25-1.32 2.29-1.21 2.08-3.28 7.63-3.71 5.5-1.21 1.52-1.11 1.09-1.26 1.41-1.24 1.66-.86 1.38-.59.78-.65.89-1.07 1.76-1.22 2.14-.68 1.11-.34.64-.25.78-.75 3.46-.38 1.27-.49 1.29-.42.96-1.2 2.13-4.32 6.97-2.38 3.41-3.27 5.15-1.35 2.07-1.33 1.71-1.55 1.42-1.59 1.48-2.32 2.05-5.75 4.24-2.75 2.07" /><path d="m760.37 143.87l2.57-4.1 1.1-1.89.58-1.46.42-1.92.39-1.31.37-.71" /><path d="m759.61 222.84l.78-2.15 1.4-3.89.65-1.57 1.55-3.83.22-.49 2.83-5.95 1.82-3.49.51-1.3.37-1.74" /><path d="m713.06 191.99l.26-2.69.02-2.18-.21-.44-1.1-1.16-.75-.4-1.39-.4-2-.6-2.8-.78-2.62-.63-1.33-.21-1.59-.22" /><path d="m736.8 187.09l-5.51-.89-1.23.09-.45.24-.18.36-.2.64-.12 1.07-.5 1.85-.2 1.18-.17.84-.45.33-1.08.32-1.26.39-2.21.7-1.67.52-1.6.49-1.18.52-.82.63-1.76 1.38-1.45.89-2.69 1.33" /><path d="m745.72 218.81l-.48 3.41-.28 1.88-.64 3.69-.52 2.78-.53 2.25-.66 2.79-1.64 4.87-.82 3.01-1.05 3.79-.99 2.95-.53 1.46-2.7 7.02-1.7 4.15-1.81 4.96-2.69 7.01-2.58 6.06-.64 1.8-1.58 4.37-1.58 4.5-1.34 3.84-.82 2.32-.25.74-2.85 7.88-1.99 5.81-.83 2.43-1.08 3.12-.68 3.62.02 2.56.42 2.38 2.12 4.79 2.74 4.62 1.53 2.67.98 2.58.58 1.35.33 3.54-.08 2.64-.71 7.01-.76 5.9-.99 4.29-1.32 3.28-1.85 4.84-.73 1.93-1.15 2.9-1.18 2.43-1.91 3.96-1.18 2.63-.47 1.27-1.3 3.33-2.04 5.82-1.24 2.87-1.18 2.29-3.01 5.38-.79 1.67-.5 1.89" /><path d="m748.74 464.28l3.36 2.94.76.34.72.12.64-.14.52-.34 6.22-4.57 1.29-1.23" /><path d="m761.73 516.71l-1.05-.17-1.08-.15-.89-.29-1.36-.72-1.55-.57-2.65-1.28-1.87-1.08-1.39-.65-1.85-.63-1.3-.44-1.07-.43-1.27-.47-2.47-1.2-2.05-1.03-1.87-.9-2-1.08-.88-.38" /><path d="m765.18 512.86l-.82-.12-.26.06-.28.18-.23.22-.16.27-1.28 2.37-.42.87-1.28 2.28-1.68 3.59-.97 2.11-.73 1.45-.71 1.11-.95 1.08" /><path d="m762.75 486.24l-.88 2.81-.56 4.84-1.39 6.68-1.51 8.46-.56 3.95-.28 1.78-.22.62" /><path d="m697.4 443.48l1.75-1.68.42-.68.15-.46.08-.51-.15-.94-.27-.73-.31-.99-.28-1.18-.4-1.13-.13-.57-.05-.64.24-4.29-.23-3.55-.2-.39-.17-.11-.24-.04-1.32.16-.38.01-.6-.03-1.91-.65" /><path d="m693.52 440.19l-3.18 2.89-3.86 3.72-1.3 1.37-1.34 1.9-.88 1.33-.86 2.45" /><path d="m756.12 458.93l-.66-.75-.49-.57-1.44-1.51-1.66-1.24-4.33-3.3-2.97-2.21-4.74-3.52-5.71-4.41-4.34-3.15-3.73-2.85-4.95-3.83-4.66-3.23-6.77-5.56-1.12-.83-.47-.71-.17-.47.05-.65" /><path d="m750.82 462.64l-.63-1.13-.79-.84-4.16-3.26-3.94-2.97-8.22-5.82-1.77 2.03-2.8 2.06" /><path d="m746.55 466.15l-5.43-4.15-3.82-3.24-4.35-2.96-2.32-1.36-1.59-1.1-.53-.63-1.37-1.61-1.04-.98-.44-.37-.41-.4-.6-.57-5.24-3.65-.23-.36.01-.37.02-.16.1-.24 2.39-4.48" /><path d="m756.12 458.93l.86-.55 1.3-.87 1.14-.83.69-.63.43-.73.17-.65-.12-.44-.21-.59-1-.89-.35-.24-1.13-.65-1.01-.54-3.99-2.97-1.94-1.55-2.88-1.9-3.02-2.46-2.84-2.37-2.19-2.18-2.3-1.68-3.91-2.87-.48-.46-.81-.65-3.16-2.22-.2-.12-.39-.25-3.99-2.49-3.87-2.84-1.22-.88-2.37-1.86-3.11-2.26-2.76-1.99-.32-.19-.35-.04-.5.21-1.45 1.66-.74.83-.14.35" /><path d="m761.17 649.32l1.16 1.72.41.83.94 1.98.49.63.7.49 1.25.88.88.97.61.6 2.05 2.99.51.5.6.28.74.16.96-.11 1.37-.61.86-.27.6-.1.52.04.5.27.28.31" /><path d="m778.77 284.08l-2.01-.72-1.37-1.14-.67-.31-2.85-1.1-.34-.27-.8-1.27-.48-.14-1.62-.22-4.14-1.5-.79-.41" /><path d="m781.85 329.28l-3.31-1.37-1.29-.38-3.34-1.25-2.78-1.21-3.26-1.72-2.15-.95-1.25-.55-2.51-1.45" /><path d="m771.27 345.47l-3.73-1.49-.28-.18-.21-.23-.75-1.32-.26-.45-.3-.32-5.07-1.56-7.47-2.62-2.95-1.07" /><path d="m771.46 312.14l1.99-4.19.19-.71.03-.45-.43-.62-11.82-6.86" /><path d="m771.46 312.14l-1.24-.97-1.44-.96-10.76-6.73" /><path d="m771.85 386.02l-1.01 3.31-2.02 3.19-2.37 4.19-1.88 3.17-1.81 3.84-1.42 2.66" /><path d="m765.91 385.29l-4.82 8.71-.73 1.46-2.08 4.19-2.17 4.55-.84 1.9-3.12 5.45-5.87 11.08" /><path d="m774.7 372.74l-4.13-.35-3.72-.66-.33.1-.33.25-.3.68-1.85 4.52-.93 3.14-1.05 4.29" /><path d="m735.43 492.59l-3.27-1.57-2.71-1.02" /><path d="m735.13 505.24l.33-2.38-.02-1.61-.34-2.93.05-1.54.54-2.7.03-.36-.04-.47-.25-.66" /><path d="m736.04 528.3l-.44.08-.38.22-7.09 9.44-1.62 2.29" /><path d="m747.91 497.72l1.37-2.62.19-.4.17-.44.4-1.87" /><path d="m729.45 490l-3.22-1.09-.77-.24-.73-.1-1.22.12-.72.23-.44.09-1.15.09-.9.05-1.56-.17-.21.03-.2.11-.14.25" /><path d="m747.67 518.28l-2.33-1.38-1.01-.72-5.55-3.08-.47-.13-.36.05-.33.17-.24.36-2.45 4.91-.8 1.7" /><path d="m710.29 521.86l-.05 2.64.12.4.26.29.29.18.36.05 4.6-.19.23-.04.16-.07" /><path d="m710.29 521.86l-.53-.11-1.49-.2-1.18-.03-.42 0" /><path d="m710.31 514.13l-8.7 2.02" /><path d="m706.67 521.52l-.26.54-.06.31.02.31.79 4.1.04.31.04.27" /><path d="m697.8 521.97l-.15-.17-.14-.27-.43-4.56-.03-3.11-.25-3.67" /><path d="m707.92 506.47l1.15 2.48.45 1.15.28 1.04.51 2.99.29 5.34-.09.98-.22 1.41" /><path d="m688.65 512.98l-1.5-10.25-1.99-12.35" /><path d="m759.92 500.57l-8.98-1.1-.96-.29-.85-.37-.64-.49-.58-.6-3.45-1.4-2.65-1.07-1.65-.74-4.73-1.92" /><path d="m758.41 509.03l-8.85-3.56-3.7-1.77-3.14-1.75" /><path d="m742.93 527.44l5.01 2.5" /><path d="m755.8 514.81l-3.61 6.96-4.25 8.17-4.77 8.54-.36.45-.52.39" /><path d="m751.28 512.45l-3.61 5.83-4.74 9.16-2.14 3.54-4.69 6.87-1.22 2.11-.51.63" /><path d="m750.04 492.39l-.54-.03-.52-.1-1.3-.53-5.68-2.87-1.68-.91-7.32-2.71-1.39-.49-.37.02-.23.11-.18.24-.82 2.43-.56 2.45" /><path d="m761.87 489.05l-3.21-1.03-1.1-.27-1.19-.17-4.69-.44-2.84-.3-1.39-.4-1.19-.52-.95-.49-1.01-.77" /><path d="m718.04 470.97l-6.54-5.7-3.56-3.76-.44-.15-.5-.09-1.02.15-3.44.97" /><path d="m737.62 513.19l-5.3-2.3-.4-.2-.12-.12-.06-.13-.01-.31.44-4.86" /><path d="m697.51 458.69l-.35.64-.27.54-.69 1.32-.34.2-.33.01-13.66-1.27-7.94-.38-1.13-.04-1.01-.1-.95-.23-10.45-1.57-4.76-.52" /><path d="m761.31 493.89l-7.58-1.35-.78-.1-.87-.07-2.04.02" /><path d="m735.13 505.24l-2.96.03-6.14-.18-5.68.14-1.65.03-5.49.59-3.55.36-1.74.26-2.45.33-1.03.24-1.02.34-6.62 2.81-4.55 1.41-3.6 1.38" /><path d="m742.29 539.32l-1.63.48-.5.02-.72-.2-3.34-1.77" /><path d="m734.37 540.59l-.53.25-1.86.36-.54-.01-.33-.13-.25-.18-2.73-2.84" /><path d="m740.79 530.98l-3.97-2.46-.42-.18-.36-.04" /><path d="m706.67 521.52l-8.33.52-.3 0-.24-.07" /><path d="m688.87 517.4l-.73 3.56-.15 1.12.01 1.27.47 2.69.4 1.8.24 2.59-.24 6.13-.7 3.69-.25.48-.34.29-.53.23-5.36.4" /><path d="m646.67 547.17l-.36 1.57-1.61 6.94-.05.64.2.85.7.61 2.59.58" /><path d="m681.69 541.65l-.2.83-.44.78-3.88 3.23-1.26.3-1.47-.14" /><path d="m682.82 524.04l-2.26.3-.36.03-.37-.05-.52-.13-2.77-.99-.39-.14-.45-.1-.79-.01-4.02.11-3.73-.67-1.45-.15-.17-.55.03-.75.35-2.01.65-4.87.14-2.29-.09-.91-.22-2.53.27-2.74-.02-1.98-.35-.94-.69-.67-1.07-.23" /><path d="m722.84 464.71l5.57 4.9 3.89 3.4.96 1.12.93 1.23" /><path d="m680.37 573.28l-.2 4.51.23 2.45.38 1.23.84.98 1.1.18 1.74-.51 1.49-.1.67.24.38.48.46 1.33.05 1.08-.51 1.18-1.89 3.11-.39.68-.18.8.19.53.73.55 4.32 2.24 3.06 1.79" /><path d="m702.94 471.32l-4.3-3.84-.52-.35-.37-.13" /><path d="m706.44 466.3l-3.5 5.02" /><path d="m717.93 492.3l-1.73-.09-.68.06-.89.17-7.94 1.45" /><path d="m687.15 502.73l-1.87.37-.46.03-.6-.01-2.77-.32-1.47-.23-.14-.06" /><path d="m702.94 471.32l1.74 1.68 2.24 2.32" /><path d="m697.75 467l3.89-5.29" /><path d="m726.94 459.25l-.63.77-.37.41-3.1 4.28-4.8 6.26-2.29 3.05-.37.25-.35.14" /><path d="m682.82 524.04l-.38.95-.06.42.01.51-.22 6.44-.19 1.5-.01 1.43-.28 6.36" /><path d="m688.87 517.4l-.73.26-.29.23-.25.46-1.29 4.45-.22.36-.24.29-.55.25-2.48.34" /><path d="m716.26 525.12l.1-.15.06-.21-.18-4.81.01-.21.01-.12" /><path d="m718.7 505.26l-.63-8.48-.14-4.48.15-2.1.11-.83" /><path d="m687.95 473.64l-3.08-.79-1.29-.2-2.19.07-8.49-.75-7.34-.59-7.71-.48-1.1-.03" /><path d="m698.97 476.15l1.23-1.07 2.74-3.76" /><path d="m672.06 478.78l-7.06-.49-5.66-.53-1.8.16-.7.15-.36.18-.26.3-.79.94-.52.45-.62.34-.54.12-.66-.03-.99.01-.52.19-.99.54-.71.56-.32.41-.47.93" /><path d="m690.47 479.6l-9.53-.22-8.88-.6" /><path d="m673.42 466.26l-9.77-.97-5.84-.35-1.21-.08-1.8-.13" /><path d="m674.6 452.77l-.2 1.3-.26 2.49-.21 3.19-.11 2.21-.4 4.3-.52 5.71-.84 6.81" /><path d="m697.75 467l-.32.19-1.09.69-.44.23-.35.06-5.67-.59-16.46-1.32" /><path d="m716.26 519.62l.06-.1.14-.11 3.89-1.05 5.05-.59 5.62-.21.85.02 1.08.19 1.98.69" /><path d="m715.03 474.41l-.5-.03-.68-.27-3.63-3.12-1.66-1.73-2.12-2.96-2.05-2.38-.53-.55-1.32-.98-.9-.68-3.33-2.47-.34-.23-.46-.32" /><path d="m688.65 512.98l.17 2.08.05 2.34" /><path d="m707.24 527.36l-.25.09-.34.07-4.55.61" /><path d="m707.24 527.36l.5.94.1.59-.01.75-.61 2.11-.39 2.37" /><path d="m679.84 502.51l-.12-.11-.09-.2-.29-1.83" /><path d="m681.98 533.86l-11.68-1.8" /><path d="m757.59 613.84l-.72-1.19-.33-.63-.27-.57-.25-.65-.49-2.93-.16-3.81.03-4.87.32-4.79.07-1.07 1.17-.03 2.78-.18 2.07-.14" /><path d="m757.59 613.84l.59-.13.63-.25.65-.24 1.45-.22 7.42.02" /><path d="m745.36 642.11l-.58-.2-.4-.52-1.78-3.68" /><path d="m754.19 630.11l-7.67 5.09-3.92 2.51-2.87 1.84-.95.58-.96.35-1.45.09-1.52.13-.37.28-.1.53-.07 5.11" /><path d="m769.59 630.17l-6.09 2.38-.99.54-7.58 4.25-4.31 2.65-4.36 2.02-.9.1" /><path d="m766.51 626.76l-.95-1.47-1.06-1.52-.84-1.02-.72-1.16-.39-1.01-.59-1.33-2.04-2.54-.94-1.28-.57-.75-.82-.84" /><path d="m773.03 537.52l-.66-.35-.64-.22-3.89-.43-1.96-.28-1.68-.25-2.72-.23" /><path d="m763.41 568.4l.63-.75.51-.21 10.29-1.25" /><path d="m771.34 642.6l-2.82 1.85-2.47 1.93-1.93 1.56-.87.36-2.08 1.02" /><path d="m761.17 649.32l-.55.28-6.85 4.03-1.9.71-1.35.29-2.18.2-2.56-.49-.5.02-.41.26-.34.55-2.1 4.05-.92 2.14-.08.72.06.5.25.69.38 1.06.3 1.94.9 2.06.67 2.06.31 2.52.13 1.2.62 2.79" /><path d="m765.75 592.96l-1.73-1.63-.42-.77-.17-.84-.02-2.4.15-8.3-.13-6.08-.14-2.71-.06-.88.18-.95" /><path d="m765.75 592.96l1.58-2.37 4.41-5.22.88-.91" /><path d="m762.24 595.57l1.59-.85.99-.61.67-.74" /><path d="m340.87 221.07l-2.28 7.36-.63 3.16-.08.47.1.34 3.83 3.42 2.16 3.07.92.58 4.25 1.56 5.75 3.63 6.33 2.95" /><path d="m448.67 181.54l4.58-.11 1.11.31 1.45 1.51 1.32 1.54 1.6 2.3.88.82 1.75.38 1.7.53" /><path d="m437.51 195.29l.53-2.86.38-.74 1.19-1.85.22-.64.26-2.57.82-1.42 2.18-2.07 2.58-1.17 3-.43" /><path d="m416.69 195.79l-.48-3.83-.08-2.93-.24-6.26-.24-.99-.29-.4-.72-.45-1.85-.64" /><path d="m369.56 196.53l4.07-1.47.42-.12.37.24 1.22 1.23 3.02 1.34.64.68 1.74 2.81" /><path d="m328.21 220.59l1.54-5.1 1.67-5.15 1.45-6.86" /><path d="m463.06 188.82l1.42 1.96 1.22 1.57 3.94 3.35 1.68 2.58.8 1.79.77 3.33-.47 2.91-1.72 2.87-2.29 2.04-.99.98-.36.57.01.58.66 2.51 2.09 2.46 1.51 1.54.95 1 .13 1.02-.61 2.32" /><path d="m767.3 160.53l-.42 3.36-1.75 5.4-1.44 6.1-.73 2.39-.36.22-.44-.01-3.42-1.37-4.46-1.88" /><path d="m621.85 451.07l-2.45-2.83-3.92-5.1-3.38-4.3-1.4-1.96-.73-.79-.35-.65-.15-.73" /><path d="m656.89 451.37l.92-3.93.66-3.34" /><path d="m656.89 451.37l1.37.01 1.76.05 1.78.05 3.19.25 5.19.5 3.53.39.89.15" /><path d="m654.8 464.73l.09-1.05.47-4.34.27-2.05.11-.66.36-1.76.31-1.59.26-1.11.22-.8" /><path d="m596.92 439.28l3.49-2.79.56-.28.59-.12.44.02" /><path d="m632.75 433.31l-.17-.64-.25-3.77.13-.74.39-.64.72-.25" /><path d="m626.8 446.39l1.37-1.19.96-.74.58-.51.59-.74.73-.71 1.07-.61 1.3-1.08 1.41-1.17.84-.9.61-1.28.37-1.14.1-1.02-.12-.34-.22-.32" /><path d="m626.8 446.39l-.69.64-.69.63-.74.82-.69.8-.81.77-1.33 1.02-2.88 2.34-2.26 1.61" /><path d="m609.47 434.71l.21-.91.58-.82 2.4-2.14 2.27-1.73 1.2-.95.18-.5-.02-.42-.12-.33-.72-.45-2.53-2.05-1.08-.54-2.12-1.08-3.27-1.81" /><path d="m653.33 428.64l.4 1.14.27 1.21.32.66.46.41.42.4.33.56.5 1.46" /><path d="m612.27 449.24l-4.91 3.67" /><path d="m620.43 460.33l-3.72-5.31-4.44-5.78-3.27-4.04-5.38-7.36-1.62-1.73" /><path d="m635.65 447.64l-1.97-.37-1.11-.2-.29-.01-.31.11-.49.35-.6.59-.25.33-.33.11-.59.07-.58-.25-.7-.54-.26-.42-.16-.43" /><path d="m611.76 458.49l-3.87 3.16-2.83 2.03" /><path d="m687.07 416.69l-.75-2.1-.64-1.67-1.72-3.66-1.9-4.27-1.73-4.28-1.24-2.69-.62-.76-.96-.47-1.98-.38-.36-.34-.05-.64.56-1.65 1.06-2.04.52-1.15 0-.82-.65-.9-1.01-.75-.65-.16-.78.17" /><path d="m667.8 420.35l-1.47-3.42-1.22-1.84-1.66-1.25-2.51-1.03-1.67-1.06-1.82-1.8-.73-.74-.27-.46.08-.35.23-.93.75-1.88.36-1.03-.01-.48-.19-.47-.49-.42-.99-.15-1.12-.2-.35-.36-.11-.42.33-1.49.61-1.58.92-1.26 1.2-2.3 1.59-3.6.09-.63.04-2.8.34-2.07.52-1.72.54-1.76.57-1.3.61-.72.44-1.13.42-1.19.53-.76" /><path d="m645.81 442.36l-.56 2.77-.34 2.04" /><path d="m641.43 441.3l2.41.68 1.97.38 1.81.28 4.16.72 6.69.74 2.9.5 5.13.78 4.74.59 4.19.71 1.75.32 1.86.19 1.92-.01.82.1 1.7.29.87.22.83.38" /><path d="m638.61 444.44l.51.77.41.64.5.36 1.2.21 1.86.41 1.04.17.78.17-.16 1.21-.17 1.13-.98 3.7-1 3.93-.58 4.84.08.61.49.42 1.96.15 3.84.44" /><path d="m627.67 455.39l1.75 2.62" /><path d="m629.42 458.01l-1.2 1.17-.51.55-.44.73-.2 1.09-.01.95.29.88.99 2.19 1.92 3.64.74.8.69.34 1.01.06" /><path d="m629.42 458.01l1.48 1.74 1.25 1.37 1.27.96 1.11 1.23 1.17 1.72.35 1.13-.18 1.42-.33.77-.41.45-.27.28-1.03.73-1.13.6" /><path d="m616 463.48l-4.24-4.99-4.4-5.58-3.95-4.97-3.23-4.34-3.26-4.32-3.69-4.07-2.38-2.44-2.96-4.1-.73-.64-.74-.28" /><path d="m656.45 408.75l-.95-.65-.63-.65-.7-.28-1.91-.57-3.18-1.01-2.42-.39" /><path d="m674.17 388.13l-.4.25-1.3.8-1.3.49-1.9.4-2.1.35-1.82.15-2.08.22-3.92.41" /><path d="m674.17 388.13l-1.35-.82-1.77-1.09-1.93-.96-1.29-.36-1.21-.32-.33-.13-.24-.18-.68-.7-.28-.21-.24-.11-.53-.12-3.53-.28" /><path d="m636.39 434.64l-.26-.21-.38-.16-1.74-.39-.94-.34-.19-.11-.13-.12" /><path d="m626.11 447.03l-4.95-6.52" /><path d="m628.01 446.98l.05-.8.11-.98" /><path d="m628.01 446.98l-.34-.18-.46-.22-.41-.19" /><path d="m586.42 427.75l-.75.18-5.64 3.64-.45.4-.57.55-1.04.62-1.96 1.47" /><path d="m651.78 443.36l-.35 2.65-.57 4-.63 4.43-1.04 4.82-.75 3.95-.05.39-.06.47.72.22.52.11 1.53.25 1.67.09 2.03-.01" /><path d="m632.75 433.31l-2.54-.91-2.53-.91-2.33-.68-1.65-.36-1.38-.26-.83.07-.42-.16-.54-.42-.67-1.13-.72-.83-.69-.54-.58-.2-.71-.03-.87.29" /><path d="m612.79 183.17l-.57-1.09-.26-.35-.35-.11-1.75-.1-.29-.17-.44-.47-.15-.71.84-2.34-.09-.25-.2-.25-.85-.54-.33-.43-.92-1.74-.14-.38-.05-.24.06-1.53.01-.32-.02-.26-.19-.58-.77-.61-.17-.2-.62-1.36" /><path d="m605.37 197.6l1.87-4.87 3.12-6.03 2.43-3.53" /><path d="m581.7 203.16l-.86-1.22-.5-.47-3.57-1.72" /><path d="m581.7 203.16l1.02.98 1 1.25.47.19.49-.06 4.2.14" /><path d="m582.68 217.21l-1.96-3.02-1.46-1.4-.11-.31.16-.47 1.42-2.13 1.19-2.87.21-1.1-.16-.86-.27-1.89" /><path d="m576.85 199.19l-4.84-1.04-2-.17-1.39-.12-.5-.11-.51-.37-.64-.91-.71-.88-.56-.47-.69-.29-.93.01-.68.13-.78.22-.25-.85.01-.84.5-1.57.88-2.15.69-4.44" /><path d="m555.5 219.55l1.2-.68 4.19-3.29 2.45-2.19.54-.27.64-.01.79.06.72-.18 1.81-1.25 1.34-.91 1.35-1.38" /><path d="m602.57 212.4l-3.41-.8-3.68-.62" /><path d="m593.34 228.24l2.43 2.59 2.69 2.3" /><path d="m593.34 228.24l-4.16 1.64-.65.3-1.96 1.93-3.1 1.8-4.09 1.24-.56.29-.69.52-4.86 4.16-1.15.85-1.48.59-1.99.01-8.53 1.37" /><path d="m618.73 203.51l2.3-5.8" /><path d="m623.12 191.25l.35-1.62.68-1.29.55-.58.89-.2 1.07.08" /><path d="m627.43 196.99l-.98 1.9-.38.34-.4.08-4.64-1.6" /><path d="m628.4 187.78l-.18 3.42-.26 3.9-.53 1.89" /><path d="m649.93 164.86l2.57-1.18.82-.12 3.74.19 1.1-.1 2.24-.83.59-.01.47.2 1.13.44.42 0 .8-.25 1.33-.89 3.64-4.51-.32-2.94-.17-1.67-.21-2.62.27-.75.67-.75.55-.45 1.03.56 2.1 1.65 2.04 2.3.64.5.72.19 1.11-.01 1.12-.63 1.18-1.37 3.15-5.18 1.83-3.45" /><path d="m630.37 206.74l.65-7.7-.16-.97-.25-.36-.48-.28-2.7-.44" /><path d="m666.34 191.16l7.87 1.66" /><path d="m674.21 192.82l-2.16 7.2" /><path d="m674.21 192.82l2.72-8.62.14-.85-.12-.79-.77-.92-1.39-.81-3.8-.88-2.73-.63" /><path d="m665.14 199.57l.21-4.25.22-1.22.77-2.94.44-4.14-.09-2.1" /><path d="m652.57 201.98l-.55-2.42-.49-3.96.05-.96.28-.78.16-1.46.04-1.09.29-.36.44-.18 1.07.05 4.59.44.27-.1.1-.33-.16-1.36.15-.68.67-1.79.55-.67 1.46-1.81.24-.3.44-.09 4.52.79" /><path d="m610.12 199.12l-4.61 8.51-1.84 2.66-1.1 2.11" /><path d="m642.36 232.13l-.84 5.57-.89 7.55-.26.74-.77 1.01-.84.63-4.55 1.4" /><path d="m631.4 206.57l-1.83 3.7-1.81 2.94-.03.54.33.35 3.61 1.42.24.13.07.28-.36 1.59 0 .27.12.39.77 1.75.62 2.76.69 3.12.43 3.83.28.52.57.47 2.63 2.09 1.01.39.52 0 3.1-.98" /><path d="m655.7 215.4l0 2.6.01 5.93-.44 1.29-.33 1.92" /><path d="m654.94 227.14l-8.25 2.09-.46.22-.14.3-.05 1.23-.11.22-.33.14-3.24.79" /><path d="m570.53 209.45l1.95-2.28 2.45-2.86 1.65-4 .19-.56" /><path d="m570.53 209.45l3.15 2.93.35.19.37-.1 1.41-2.16" /><path d="m576.77 199.75l.08-.56.63-5.56 1.34-6.26" /><path d="m599.78 195.58l2.38-4.99 3.02-6.39" /><path d="m613.56 182.03l1.86-2.53 1.77-1.87 1.19-1.65 2.22-4.13" /><path d="m628.4 187.78l1.45-3.95 1.57-4.63.4-.37 1.22-.84 1.3-1.71.71-2.29.16-.52.34-.55.89-.69 3.46-2.07 1.42-.29 3.32-.04 1.06-.31 1.34-1.4 1.32-1.93 1.57-1.33" /><path d="m666.69 184.92l.48-2.32 1.09-3.28 1.31-4.24 1.67-5.56.32-1.65.1-1.92.16-.48 1.37-1.62.19-.64-.2-.81-.46-.81-3.94-3.79" /><path d="m654.69 201.54l.16 4.96.86 5.33-.01 3.57" /><path d="m667.2 239.7l1.6 1.38 2.2.78 3.59.45 4.77-.26 2.38-.13.8.24.76.44 2.1 2.68" /><path d="m658.79 243.98l2.24-2.59.77-1.16.51-1.26.28-.34 1.54-1.54" /><path d="m662.72 262.4l-1.16-.2-.49-.32-1.9-3.2-2.25-1.74-1.16-1.05" /><path d="m662.72 262.4l3.38-4.9 1.86-2.66.54-.54.68-.42 2.98-1.62 1.36-.75.78-.35 2.65-.56 1.33-.54 2.98-2.19 4.14-2.59" /><path d="m702.13 235.59l2.3-1.33" /><path d="m702.13 235.59l1.8 2.21.52.88.22.73.09.56.24.57.43.27.73.07 2.18.06" /><path d="m685.4 245.28l2.07-.94 1.5-.95 1.89-2.04.34-.71-.13-.73-.52-.54-1.88-.87-.28-.51-.03-.58.13-.64.31-.43 5.46-2.74" /><path d="m672.16 252.26l-1.92-2.88-1.6-1.99-2.12-2.13-.4-.24-.37.1-1.74 1.01-4.82 2.86-.72.24-.42-.22-1.33-3.04.18-.46.14-.16 1.75-1.37" /><path d="m655.7 215.4l1.81.93.36.25.73 1.57.24.14 1.3.45.43.34.16.38.71 4.02-.6 4.58-1.34 4.51 0 .44.41.48 2.71 1.78 1.51 1.82" /><path d="m654.94 227.14l.04 2.6.14 1.27.25 1.41.18.46-.24 4.41.01.61.2.53 3.27 5.55" /><path d="m602.57 212.4l-.71 2.98-.54 1.42-2.86 4.15-.36 1.53-1.13 1.91-1.87 2.45-1.76 1.4" /><path d="m658.35 268.05l3.82-2.09.71-1.3.17-.87-.33-1.39" /><path d="m612.79 183.17l.77-1.14" /><path d="m613.56 182.03l2.54-1.21.84-.22 1.44.14.97.31" /><path d="m621.03 197.71l.97-2.78.9-1.77.22-1.91" /><path d="m626.66 187.64l1.74.14" /><path d="m623.12 191.25l3.54-3.61" /><path d="m664.13 237.09l3.07 2.61" /><path d="m694.26 233.6l1.63-.82.64-.09.41.15 2.21 2.96.48.38.49.09 2.01-.68" /><path d="m690.35 222.42l-1.04-5.2-.05-.59.13-.75.25-.59 5.09-8.5" /><path d="m694.26 233.6l-2.05-4.9.42-.29.26-.19.36-.31-.45-.88-2.45-4.61" /><path d="m667.2 239.7l1.76-2.07.44-.32 3.56-1.29.52-.34.44-.36 1.59-1.71.54-.47 4.94-3.39.63-.56 2.69-2.8.54-.86.38-.35.43-.32 1.37-.76 3.32-1.68" /><path d="m589.4 191.1l.79-2.44 1.53-2.47.04-.55-.31-.69-4.06-2.23-.24-.35-.09-.59.31-2.2.28-.46 1.12-.9 2.09-2.95.21-1.55.36-.88 1.46-2.01.5-.59 1.87-1.16" /><path d="m726.38 378.08l.75-1.48 2.55-4.63.86-.97 1.13-1.07 1.16-.95 2.55-1.67 1.42-.74 2.62-.57" /><path d="m739.42 366l.5-.26.15-.19.06-.3-.33-1.82-3.81-5.21-1.96-2-1.23-1.05-1.26-.59" /><path d="m744.91 367.71l.52-1.07.44-1.06.34-.92.61-1.61 2.12-5.79-.53-.36-1.66-1.31-.68-.54" /><path d="m750.25 336.23l.25 2.15-.79 5.53-.58 3.64-3.06 7.5" /><path d="m753.49 313.71l-1.34 2.15-.97 2.32-1.67 4.97-1.46 4.15-2.51 7.1" /><path d="m740.1 298.47l6.64 3.74 5.59 3.79 2.43 1.78 2.02 1.46" /><path d="m758.02 303.48l-12.93-8.82" /><path d="m739.75 287.12l4.12 1.52 3.26.85.89.45 5.23 3.82 6.8 4.29 1.37 1.26" /><path d="m688.25 310.77l-6.58-3.27-1.16-.47-3.96-.61" /><path d="m696.18 283.41l-.77 1.03-2.48 4.36-1.68 4.19-.17.28-.25.06-1.24.04-.4.11-.27.18-1.74 1.42-1.74 1.49" /><path d="m678.05 288.79l2.63-.3.56-.33 1.82-2.06 3.66-3.06 1.95-.88 2.35-.2 3.24.83 1.92.62" /><path d="m671.13 289.72l5.9-.84 1.02-.09" /><path d="m678.05 288.79l.08 5.06.23.36.49.29 2.15.25 1.45.47 2.99 1.35" /><path d="m690.68 305.21l-4.73-2.26-3.74-1.48-3.16-.15-1.69-.23-.59-.51-1.24-2.17-.27-1.08.13-.56.29-.49 3.17-1.78" /><path d="m722.3 291.56l-7.62-2.5-2.64-.84-5.33-1.82-3.04-1.18-2.31-.6" /><path d="m706.45 301.07l-5.02-1.66-.35-.21-.11-.34.07-.29 2.06-4.56 1.23-1.8.91-2.47 1.47-3.34" /><path d="m709.64 294.78l1.54-.02 1.57.04 1.04.22 6.35 2.7" /><path d="m706.45 301.07l2.71-5.39.48-.9 1.46-3.47.53-1.18.41-1.91" /><path d="m688.25 310.77l2.43-5.56 1.35-2.74 1.03-2.11.35-1.09" /><path d="m713.14 317.7l-8.39-1.57-2.91-.74-3.2-.61-2.25-1.08-2.76-1.07-2.98-.73-2.4-1.13" /><path d="m757.28 384.03l.66-4.05 1.14-6.56.54-5.62.19-1.96" /><path d="m754.52 365.5l5.29.34" /><path d="m759.81 365.84l.75-1.05.14-.18.5-.28.14-.16.23-1.04-.02-.43-.21-.24-1.67-1.02-3.99-1.06-.47.17" /><path d="m748.94 357.26l1.44.27.67-.3 1.62-3.14" /><path d="m761.96 320.4l-1.06-1.58-2.01-1.72-5.4-3.39" /><path d="m755.55 323.26l.51.13.52.05 1.63.24.75-.13.94-.44.74-.78 1.32-1.93" /><path d="m727.98 296.86l2.65-5.29 3.13-5.62" /><path d="m727.98 296.86l3.46-.09 3.49-.7.5-.48 2.52-4.34.84-1.56.96-2.57" /><path d="m699.61 283.95l-.44-.99-.01-.68.14-.8 1.68-3.48 1.19-1.82.07-.36-.15-.44-.95-.52-1.53-.89-1.54-.25-.31-.17-1.51-1.35-.58-.14-3.42.36-.57-.18-1.86-1.68-2.4-1.4" /><path d="m720.96 295.4l5.98 2.25.43.03.28-.24.33-.58" /><path d="m725.46 282.69l1.23 1.05 2.62 1.33 2.22.62 2.23.26" /><path d="m743.36 278.61l1.49.05 1.63.17" /><path d="m731.37 267.82l2.33 2.31 1.34 1.12 1.01.91 1.44 2.03 1.81 2.6.45.37.42.15 3.19 1.3" /><path d="m739.75 287.12l1.18-3.1 1.01-2.14 1.42-3.27" /><path d="m715.05 312.15l2.22.83 2.23.72.31.19.32.42 3.35 3.95 1.45 1.64.49.25.46.06 1.16-.11.82-.45.87-1.23.76-.52.7-.12.57.17 1.7.4 1.86.35 1.54.3 1.94.48 1.85.44 1.36.29.62.44.37.17.46-.02.53-.32.8-1 .03-.56-.1-.55-.48-.54-.88-.3-.99-.41-.73-.6-.63-.61-1.55-1.18" /><path d="m729.39 333.91l3.88-.21.2-.22.22-1.39.16-.29.27-.17" /><path d="m729.39 333.91l-.42-1.58-.33-1.04-1.69-3.1-.15-.42-.14-.54-.44-2.95" /><path d="m748.05 327.3l5.67 2.4 6.56 3.73 1.89.85 5.61 1.56.56.56.3.68-1.59 6.49" /><path d="m720.85 342.27l5.47.12 1.69.07.53-.15.38-.44.46-6.33.01-1.63" /><path d="m745.54 334.4l-4.6-1.74-1.84-.44-1.94-.52-3.04-.07" /><path d="m734.12 349.58l11.95 5.47" /><path d="m731.54 354.58l2.58-5" /><path d="m691.32 354.18l2.7 1.67 4.46 3.1" /><path d="m731.54 354.58l-2.93-.1-2.35.05-2.9.83-2.97.1" /><path d="m680.15 332.68l4.07 2.56" /><path d="m686.44 339.51l-1.08 1.65-1.77 1.4-.08.18.14.31 2.57 1.97 3.51 2.68 2.07 1.29 1.65.7 1.24.74 2.08 1.56" /><path d="m698.48 358.95l3.61 2.33 1.22.58 1.44.45 1.13.21" /><path d="m691.5 374.49l.72-2.3.29-1.34.07-.84-.05-.76-.17-.59-.81-.89-.09-.28 0-.21.1-.3 2.74-3.42.96-.91" /><path d="m710.89 353.8l-3.72 6.27-.85 1.49" /><path d="m682.04 316.81l-.35 1-.06 1.29.23 1.75.39 1.36.34.5 1.48.79.7.37.67.21 1.14-.02 1.45.18 1.15-.05 1.46-.32 1.52-.1 1.03.22 5.24 2.4 5.13 2.98 6.11 3.76 4.35 2.92 5.27 2.29" /><path d="m697.69 339.87l.36-.23 2.13-4.3-.03-.45-.26-.35-2.71-1.95-.75-.56-.83-.39-.79-.11-.34-.19-2.65-1.76" /><path d="m699.46 347.26l-4.09-2-5.4-2.82-3.53-2.93" /><path d="m731.54 354.58l-.94 2.13-2.42 6.05-1.89 5.95-.42 1.08-.55 1.35-.71 1.2-.96 1.27-.56.74-.07.33-.01.24.09.5.01.47-.01.67" /><path d="m772.3 469.89l-5.83 1.09-1.05.14-.69-.1-.48-.28-.35-.69-.2-1.29" /><path d="m763 525.97l1.93.49 1.16.35 1.43.18 1.78.01.62.29.67.16 2.02.36 2.59.76 1.41.54 1.53.35.99.32.64.27.65.46" /><path d="m760.7 542.68l1.01.91.6 1.14.28 1.28.59 1.18.95.44 1.11.25 2.29.28 2.05-.23 2.92-.15" /><path d="m747.61 309.37l5.88 4.34" /><path d="m706.32 361.56l-.44.96-2.57 5.05-1.6 2.6" /><path d="m696.77 351.99l3.5 2.22 4.14 2.79 1.94 1.9.82 1.17" /><path d="m710.89 353.8l-7.03-3.32-4.4-3.22" /><path d="m686.44 339.51l-.33-.28-.67-.69-.78-1.4-.44-1.9" /><path d="m686.88 351.06l4.44 3.12" /><path d="m695.26 362.65l3.22-3.7" /><path d="m691.32 354.18l-1.68.79-.11.17-.52 5.12.04.5.37.31 1.4.57 1.43.48.96.28.51.09 1.54.16" /><path d="m712.78 372.83l-4.86-2.03-.22-.16-.07-.19-.05-.15.03-.24 1.13-2.15 1.24-2.56 0-.3-.18-.22-.92-.37-.32-.33-.7-1.63-.32-.31" /><path d="m699.46 347.26l-1.29 2.41-1.4 2.32-2.75 3.86" /><path d="m739.42 366l.54.71.72.54 1.84.59 1.57.26.82-.39" /><path d="m744.91 367.71l.49.33.11.15.04.19-.37 2.81-.04 1.89-.02 1.47-.06 1.4-.21 1.4-1.14 5.19" /><path d="m715.05 312.15l-6.16-2.21-4.07-1.42-1.16-.36-1.01-.4" /><path d="m702.65 307.76l-1.99 3.44-.69 1.57-1.33 2.01" /><path d="m699.46 347.26l1.43-3.02 2.1-3.37" /><path d="m701.36 284.62l-1.75-.67-3.43-.54" /><path d="m685.44 296.57l1.18.49 3.61 1.61 1.45.56.68.17 1.05-.13" /><path d="m750.25 336.23l-4.71-1.83" /><path d="m771.55 352.34l-4.73-.88-.59-.19-.43-.4-.54-.99-.19-.21-1.91-1.53" /><path d="m707.54 362.19l-1.22-.63" /><path d="m707.54 362.19l-.37-2.12" /><path d="m699.27 365.22l-.91-.89-1.42-1.04-1.68-.64" /><path d="m763.7 277l.22-.53.79-2.36.7-1.44.93-1.94 1.39-3.33.36-.75" /><path d="m746.05 257.93l4.8 1.23 2.5.98 4.03 1.58 5.42 1.98 4.25 2.25.38.25.28.21.38.24 2.83.86 3.7 1.84.1.18.01.22-1.09 1.99-1.77 3.31-1.14 4.22" /><path d="m684.22 335.24l.62-.53.72-.7.23-.18.4-.27.51-.08.53.24 5.04 3.27 4.94 2.86.48.02" /><path d="m755.21 360.55l-.69 4.95-.26 3.92-.96 6.98-1.16 7.06" /><path d="m702.65 307.76l1.21-2.44 1-1.73 1.59-2.52" /><path d="m693.41 299.27l3.44-6.34 2.78-4.97.9-2.03.83-1.31" /><path d="m733.76 285.95l5.99 1.17" /><path d="m720.39 355.46l-8.26-1.23-1.24-.43" /><path d="m760.37 143.87l-1.19 1.65-.63 1.4-1.67 3.11-.27 1.19-.28 1.4.02 1.39.05 2.46.02 4.68-.19 2.04.17 1.77-.14 1.23-.35 1.58-.42 1.37-.67 1.91-.54 3.69-.12.83-1.06 6.88-.73 4.24-.42 2.08-1.53 7.49-1.96 9.52-.14.72-.68 2.64-.78 3.14-.67 3.83-.47 2.7" /><path d="m739.88 625.35l-.08-1.05-.56-3.83" /><path d="m739.88 625.35l-.03 2.04-.15 2.23.31 2.31.68 2.11 1.91 3.67" /><path d="m759.49 627.09l-5.3 3.02" /><path d="m766.51 626.76l-2.52-.29-1.56-.19-1.37.16-1.57.65" /><path d="m757.57 625.5l-2.54 3.36-.84 1.25" /><path d="m719.61 608.25l-.71.47-.33.35-1.39 1.86-.6.31-.83-.14-5.32-3.73-1.31-.5-1.02.08-.9.62-2.35 2.39" /><path d="m674.44 546.65l-1.26 5.12-.16 1.45-.03 2.46.19 1.43.24 1.13.48 2.1.11.93.28 6.53-.28 2.12.11.93.74.51 1.32.15 2.94.14.66.28.49.54.1.81" /><path d="m703.7 582.93l.64-.68.75-.29 1.29-.13 1.03.12.91-.18.7-.63.68-.62 1.14-1.12 1.24-1.31 1.51-1.93 1.42-2.61.86-1.76.36-.47.86-.54 2.88-1.15" /><path d="m713.81 598.55l-.52-1.4-.25-1.57.02-.66.1-.63-.05-.52-.41-.47-.88-.59-.38-.5-1.1-1.6-.79-.54-1.06-.64-1.31-.98-.83-1.18-.66-.74-.61-.21-1.12-.2-.58-.52-.19-.69.18-.94.33-1.04" /><path d="m755.4 599.19l-.73.61-.4.19-.41.09-5.42.66-7.71-.22-1.24-.18-.55-.25-.87-.85-.53-.67-.47-.21-.82-.13" /><path d="m736.25 598.23l-.52.14-.48.41-.65 1.64-.61 2.03-1.19 1.41-3.84 2.76-1.31 1.23-1.17 1.86-.75 1.73-1.94 2.39" /><path d="m734.12 620.74l-4.93 3.76-1.06 1.28-1.14 2.01-8.62 9.34-1.54 1.96-1.16 2.46-.18.72-.15.45-.43.47-1.08.45-.67.63-2.03 2.64-2.64 3.27-2.74 3.55-.98 1.15-.45 1.29-.46 1.9-.35.96-.71.9-2.73 2.34-3.94 3.71" /><path d="m757.59 613.84l-4.62 2.36-7.36 2.76-6.37 1.51-5.12.27-2.51-.5-1.71-.73-3.33-2.68-2.78-3-2.56-2.79-.88-1.85-.74-.94-1.06-1.35-1.22-1.93-.91-2.77-1.84-2.89-.77-.76-1.11-.19-2.73-.09-2.34.25-1.59-.14-2.94-1.15-2.74-.88-1.16-.19-1.69.08-4.67-.21-.83.39-1.15.83-1.39 1.52-.86.49-1.27.06-1.29-.27-4.32-1.61-1.38-.25-1.84-.2-1.1-.06-1.3-.15-2.36-.48-2.75-.18-1.44.33-2.12.9-2.15 1.61-.78.35-.59.18-.65.32-.94 1.01-1.84 2.13-1.52 2.19-1.06 1.88-3.06 5.35-.88 1.68-.53 1.36-.84 3.11-.61 1.84-.63 1.45-1.87 3.97-.45 1.88-.13 1.43-.53 2.06-1.19 5-.55 1.46-.66.93-1.67 1.63-3.82 2.81-4.52 3.54-2.73 1.81-6.27 3.31-.72.52-.39.59-.25.6-.14.59.05.89.49 3.24-.1 1.46-1.62 2.96-1.62 2.31-.83 1.64-.68 1.5-.38 2.81-.03 3.09.41 1.31.55.68.72.8.32.54.1.58-.15.5-.42.58-2.79 1.74-3.89 3.07-2.18 3.56-.6 1.79-.69 2.31-.17 2.48-.05 6.58 0 .89.57 1.06 1.39 1.67.7 1.08 1.34 2.08.7 1.31.48 1.95.73 2.7.18 1.38.02 1.5-.45 1.61-.67 1.05-.38 1.2-.09 1.03.14 1.1.42.89.54.79.28 1.16.06 2.12" /><path d="m759.49 627.09l-1.92-1.59-1.77-1.1-.93-.18-1.19.28-4.17 1.15-3.16.48-2 .05-3.24-.51-1.23-.32" /><path d="m756.98 582.4l-2.35.23-2.28.43-1.48.23-2.94-.1-2.49.15-5.56.83-.75.33-.49.8-.45 2.86.32 2.76-.15 2.11-.63 1.94-.48 1.2-1 2.06" /><path d="m755.79 593.33l1.19-10.93.57-4.58" /><path d="m484.7 518.15l-1.01-.6-2.23-1.91-2.29-1.91-1.43-1.78-1.63-1.9-.81-.78-.85-.67-1.7-1.07-1.13-.56-.29-.1-.18-.11-.07-.11-.15-.3-.53-1.3-.32-.51-.64-.83" /><path d="m492.9 497.09l1.11-1.1.22-.39.12-.43.12-.56.03-.5-.06-.36-.16-.32-.58-.55-1.19-1.59-1.31-1.67-1.84-1.78-1.5-1.49-1.35-1.51-1.41-1.29" /><path d="m492.79 508.65l-.79-1.4-.22-.54-.01-.3.17-.66.08-.27.04-.26-.01-.7-.09-.43-.19-.65-.04-.3-.02-.88-.11-1.96.03-.71.15-.71.28-.69.84-1.1" /><path d="m467.18 440.14l1.11.97.96 1.12.88 1.53.99 1.58 1.12 1.42 1.37 1.74.94 1.28.36.75.08.74-.19 1.53.3 1.35.78 1.8 1.14 1.52.39.22 1.13.26.77.28.42.44.63.98.64 1.56.67 1.13.18.41.02.34-.07.34-.19.67-.57 1.91" /><path d="m533.63 474.95l2.98-2.33.74-.18 1.03.07.85.16 1.25.91 1.17.88.9.35 1 .1 2.08.02" /><path d="m545.63 474.93l.96.06.66.16.63.25.73.55 1.93 1.92 1.4 1.21.81.89.93 1.3.52.86.4.83.33.89.78 1.94" /><path d="m520.04 516.91l-1.21-4.27.06-.62.29-.6.36-.51 1.82-1.95.49-.94.29-.49 1.79-1.91 1.56-2.44.95-2.07.74-1.67.44-.56.81-.43 4.84-1.42 6.3-.78 3.55-.8 1.01-.68.34-.91-.2-.96-.84-4.42" /><path d="m472.36 478.46l-1.76-.2-.58-.11-.42-.12-.62-.28-.48-.33-.78-.48-.69-.36-2.19-.72-1.79-.75-.77-.41-.47-.31-1.06-.9-.38-.22-.39-.09-.75-.12-.61.03-1.02.02-1.04-.03" /><path d="m481.04 466.01l-.03.76.13.57.9 1.69 1.22 2.45.23.91.05.8-.04 2.72.18 1.97.81 3.23.61 2.44" /><path d="m485.1 483.55l-1.95-1.53-1.04-.62-.58-.25-.33-.08-.46-.16-.45-.28-.48-.41-1.01-.9-.5-.28-.5-.19-1.01-.21-1.93-.02-2.5-.16" /><path d="m475.08 521.43l.46-.97.36-.77.18-.18.24-.1.34-.06.32-.01.44.1.33.05.31.09.33.22.82.65 1 .91 1.39 1.01" /><path d="m530.53 484.72l1.52.53.59.46.91 1.14 1.06 1.77 1.08 1.99" /><path d="m582.86 479.67l-.13 1.49-.5 2.04-.15 1.58.27 1.86-.04 1.87-.22 1.5-.63 1.67-.98 2.35-1.04 1.38-1.29 1.28-.98 1.52-.78 1.75-.44 1.28-.31 1.93-.56 3.08-.73 2.09-.41 1.02-.64 1-.99 1.34-1.82 3.06" /><path d="m570.49 514.76l-.23.6.02.58.12.3.19.32.38.49.92.9 2.24 1.24 2.43 1.76 1.27 1.18.46.57.32.69.21 1.53.21 1.18.11 1.19-.3 2.24-.13 1.95-.15 1.59.01.18.07.14.12.09.94.25" /><path d="m755.26 266.45l2.12-4.73.78-.48.98-2.2.54-.54.21-.66.01-.58-.36-.49-6.54-3.94-.8-.39-.64.04-.55.11-.56-.05-1.41-.31-1.63-.39-1.18-.08-.67.08-.61-.03-.82-.24-2.05-.52-2.23-.53-1.74-.29" /><path d="m765.26 257.37l1.39.71 6.15 2.77 1.65.61.42.01.3-.17.2-.29.81-1.8.22-.22.36-.1.31.07" /><path d="m777.33 230.2l-2.85 2.72-.7.88-.84 1.23-3.13 5.75-.36.9-.76 3.39-.25.95-1.5 4-.41 1.34-.34 2.02-.14 1.55-.24 1.04-.55 1.4-2.46 6.33" /><path d="m764.21 210.91l3.09 1.21.19.14.09.18 0 .22-.09.18" /><path d="m760.39 220.69l1.83.25 1.6.4 1.94.78 2.36 1.2 1.94.99.91.45.96.5 2.7 1.02" /><path d="m754.07 220.57l1.86-4.85.49-.81.6-.42.74-.19 1.09 0 1.07.2 2.52.73" /><path d="m763.99 211.4l-3.08-.91-3.05-.69-4.43-1.34-5.11-1.96" /><path d="m767.66 182.25l-4.37-1.13-.36-.26-.17-.45-.16-2.41" /><path d="m767.49 212.84l-.96 2.01-2.71 6.49" /><path d="m508.65 141.78l.91 1.86.76 1.52 1.38 1.48 2.17 1.96 1.84 2.28 2.72 3.41" /><path d="m519.82 130.91l.17.18.19.37.37 1.41.48 1.63.3 1.46.28 2.29 1.34 4.47" /><path d="m527.21 123.99l-.43.29-.19.26-.09.36.31 4.05.33 2.21 0 .69-.2.97-.37 1.3.04.76.8 2.48.15.73-.06.93-.34.87-.76.65-1.16.51-2.29 1.67" /><path d="m515.71 150.88l.92-1.06.69-.67.38-.34.28-.42.06-.49.08-1.67.09-.54.16-.27.57-.45 4.01-2.25" /><path d="m492.05 150.28l.15 3.19.35 1.08.81 1.26 2.96 2.78.33.27.37.17.61.08 2.61.19 1.08.12.65 1.21.47 1.37 2.81 8.58" /><path d="m484.7 175.91l1.08.79.68.49.63.52.74.73 1.06 1.37.34.66.32 1.11.25.73.49.68.68.59.96.72.65.92.15.84.31 1.48.2 1.08-.07.9-.02.59.09.3.26.36.32.43.33.05.14.17.13.42.29.23 1.49 2 .5.61.51.52 1.6 1.08 1.94.65 1.1.38 1.02.72.75.47 1.13.32 2.29.68 1.74.89" /><path d="m563.42 163.85l.06-.32.2-1.2-.11-2.24-.31-2.35-.44-3" /><path d="m561.47 169.82l-1.45-2.41-1.67-2.59-.64-1.03" /><path d="m539.44 175.39l-3.34 3.72-.2.09-.19.03-.19-.08-3.25-3.08-.98-.53" /><path d="m543.27 146.95l-1.78 2.03-.43.62-.09.39-.05.42.05.45.14.4.5.52 3.25 2.18" /><path d="m533.65 163.15l1.05 1.24 1.19 1.58 3.22 4.32" /><path d="m524.75 169.63l1.22 1.15 1.12 1.37.9 1.01.99.95 1.23.89 1.08.54" /><path d="m524.75 169.63l0-.24.13-.19 1.97-1.02 1.3-.79 2.75-2.17" /><path d="m558.75 154.5l4.67 9.35" /><path d="m563.57 160.09l.92-.91.28-.2.25-.06.35.04.96.59.51.3.48.17 1.81-.02" /><path d="m557.71 163.79l-2.73-.45-1.68-.21-.93-.09-.84.05-.73.3-.86.81-.36.81.07.74" /><path d="m557.71 163.79l-.92-1.92-.59-1.46-.17-.79-.05-.99.13-1.04.34-.82.76-.9 1.54-1.37.71-.29 1.63-.16 1.09.02.43.24.21.43" /><path d="m541.31 177.01l1.78-1.36.95-.6 1-.37 1.34-.02 1.29.09 1.7-.07 3.04-.92" /><path d="m552.41 173.76l3.69-1.22 2.07-.6 1.45-.67 1.04-.67.81-.78 1.92-1.99.2-.47.08-.48-.26-1.82-.07-.79.08-.42" /><path d="m551.96 183.74l.29-1 .4-.83 1.05-1.31 1.21-1.14 1.25-.64 1.97-.79 2.74-.47" /><path d="m549.65 165.75l1.42 4.47.83 2.39.51 1.15 1.16 2.64 1.34 3.06" /><path d="m521.81 154.39l3.78-3.92 1.44-1.32 2.97-2.45 1.65-1.23 1-.5" /><path d="m532.65 144.97l1.79-.34 5.96-1.08 2.55-.45 2.09-.2 1.33-.19.74-.01.59.12.67.34 2.44 1.87" /><path d="m501.32 159.42l3.59-1.33 2.15-1.08 2.76-1.61 5.89-4.52" /><path d="m433.9 136.98l.63-.26 1.18-.46.58-.09.67 0 1.33.2 1.16.32 1.46.25 1.97.17.98.18 1.15.32 1.24.51 1.26.65 1.1.68 1.52 1.29.36.49.39.38.84.67.71.28.79 0 1.87-.38 1.82-.29 1.32-.17 1.72-.23 1.37.04 3.69.28 1.13.04 1.21-.08 1.48-.38 3.34-1.03 2.71-1.1" /><path d="m638.47 493.79l-.04.33-.02.4-.04.45 0 .57-.2.66-.37.54-.52.34-.79.53-.72.74-.65.55-1.54.84-2.65 1.6-1.39.73-.75.25-.57.02-.58-.12" /><path d="m643.55 485.78l-.45.29-.85.28-.38.29-.34.61-.49.98-.29.41-.69.32-.59.27-.42.51-.21.45-.18.83-.07 1.09-.1 1.01-.02.67" /><path d="m648.33 464.07l-.57 2.75-.57 3.23-.69 3.45-.62 4.1-.3 1.95-.26 1.57-.09.83.02.45.21.39.47.24.86.15" /><path d="m646.79 483.18l.93-.17.91-.02.46.02.47.15 1.06.43.72.08 3.93.32 2.07.36 2.67.73 1.68.33 1.35.3 1.08.24 1.18-.08.86-.25 1.63-.52 1.61-.41 1.77-.08 2.11.24" /><path d="m617.96 485.78l.73.99" /><path d="m600.97 473.35l2.24 4.35.46.69.7.21 1.37-.31 1.02-.18.84.34.54.49 1.61 2.87.55.93.34.42.6.16.87-.05.42.33.73 1.58.63.92 1.06.55 1.04.19 1.36-.01 1.34-.06.6-.03 1.01.15.9.57.86 1.16.36 1.57.71 1.51 1.17 1.79.48 1.39.22 1.28-.13 1.44-.12.88.15.65.61.98 1.23 1.23.9.88" /><path d="m608.9 468.29l2.98 4.74 1.28 1.74 1.38 2.47 1.13 2.08.41 1.45.23.98.35.75.47.87.83 2.41-.61 1.05" /><path d="m658.14 549.34l-2.75-.52-6.29-1.15-1.16-.28-1.27-.22" /><path d="m662.65 544.34l-2.04-.54-3.17-.6-6.53-1.16-2.04-.05-.89.24-.45.64-.86 4.3" /><path d="m645.58 479.55l-1.6-.26-.31-.01-.76.11-.35.05-.38-.07-.69-.53-1-.62-.87-.39-1.51-.08-1.32.17-.91.18-1-.12-.67-.17-.65-.19-.6-.48" /><path d="m674.44 546.65l-5.69-1.38-4.98-.78-1.12-.15-.54.69-.66.96-1.56 2.24-.82.71-.93.4" /><path d="m658.14 549.34l-.85 4.69.03.46.16.25.78.26 4.24.64" /><path d="m665.71 522.24l.21 1.22-.1.56-.95 1.55-.17.47.01.38.28.97.55 1.02.42.65.44.65.29.85.28.46.76.6.86.32 1.71.12" /><path d="m658.02 476.15l1.32 1.61" /><path d="m658.02 476.15l-.48 1.77" /><path d="m632.96 477.14l-.29-.56-.04-.83.21-.85-.03-.57-.13-.46-.25-.58.01-.26.19-.23.26-.11.45-.13.39-.3.36-.57.49-1.08.3-.87.25-.94" /><path d="m646.79 483.18l-.18 1.18-.25.36-.46.13-1.26.08-.39.07-.27.22-.43.56" /><path d="m650.62 483.59l-1.08.43-.63.49-.62.75-.69.6-.6.31-.56.47-.44.45-.53.18-.69.04-.58-.15-.36-.38-.29-1" /><path d="m656.75 470.87l-.15 1.36.46 1.76.96 2.16" /><path d="m656.75 470.87l.64-3.93.42-2" /><path d="m650.59 481.11l.46.14.31.16.14.31 0 .33-.16 1.62" /><path d="m548.65 182.84l-1.34 1.8-2.11 2.14-4.47 2.84-2.49 1.56-3.78 1.4-.63.2-.78.07-.73-.23-.73-1-1.55-1.73-.7-.12-.77.12-.52.5-.6 1.18-1.38 1.45-.3.31-.52.4-.48.49" /><path d="m544.48 216.34l2.11-3.31.38-1.24.23-5.98.23-1.09.39-.84.69-1.04.99-.57 2.6-1.1 2.56-.92" /><path d="m524.77 194.22l-.33.83-.22.62.18.59.5.95.98 1.8 1.44 1.83 1.61 2.12 1.21 2.12.36 1.91.17 1.34.46.95 1.62 1.97 1.2 1.74.71.62.74.8.32.7.09.56-.22.42-.06.39.06.52.29.59.48.41 1.61.05 3.47-.39 2.14-.67.9-.65" /><path d="m540.73 189.62l.71 1.32.37.48.74.61.82.86.59.91.8 1.7.75 1.01.89.95.57.27.93.22 4.78-.13" /><path d="m562.62 195.19l.23.72.16.99.24 1.92.33 1.22.38.91.09.63-.17.65" /><path d="m544.48 216.34l.34.72.35 1.55.36 1.34.03 2.46-.6 2.55-1.16 2.97-1.64 2.18-2.16 2.63-1.27 1.18" /><path d="m524.22 195.67l-.82.81-1.02 1.26-.68 1.01-.53 1.35-1 1.9-.28.92-.48 1.87-.05 2.11-.3.81-.52 1.6-.65 2.33" /><path d="m536.36 218l-.45.94-.63 1.12-.68.89-1.06.84-1.2.66-1.43.41-.46.3-.26.35-.2.48.11 2.17-.28 1.84-.12.2-.19.25" /><path d="m560.89 215.58l4.64 5.62 1.25 1.12.41 1.07.14 1.18-.73 2.63-.49.68-2.39 1.65-.7.1-1.25-.13-1.17-.09-1.42.19-1.41.4-1.53-.22" /><path d="m554.66 200.25l.81-.04 1.16.18 1.82.63 3.44.99 1.58.03.41.19.24.25 1.28 2.18.23.13.29-.03.39-.1.23.08.15.18.67.75.61.36.74-.01 1.22-.11 1.11-.51 1.18-.58.91-.26 1.8-.25" /><path d="m552.68 197.82l.5.6.97 1.14.51.69-.13 1.26.21 1.04.56.85 1.31 1.61.8.61.79.41.29.59.2.91.52.47 1.02.5 3.42 2.67.42.59.45 1.35" /><path d="m555.7 184.41l.17 1.08.35 1.14.11.44-.02.47-.26.64-.47 1.28-.21.92-.06 1.54-.21.47-.19.42-.18.91-.5 1.02-.54 1.13-1.01 1.95" /><path d="m524.77 194.22l-.74-.33-.61-.56-.8-.39-.84-.28-.96-.06-.82.12-1.32.93-.97.89-1.14 1.27-.71 1.29-.51.98-.93.92-.86.29-.26.16-.45.49-.39.17-1.02.16-1.56.09-1.1.03" /><path d="m736.42 179.96l-1.05-.09-.85-.17-.96-.42-.73-.13-.84.1-.91.09-1.16-.04" /><path d="m729.92 179.3l-1.64.25-1.91.26-1.39.1-1.26.03-1.17-.07" /><path d="m729.92 179.3l-.38-.22-.16-.3 0-.76.15-1.22.01-.56-.17-.46-.43-.5-1.04-1.06-1.34-.46-.73-.18-1.14-.22-.68-.43-.43-.63-.28-1.08 0-.93.07-1-.05-1.31-.02-.6.1-.65-.1-.53.23-1.05.3-.48" /><path d="m736.8 187.09l-.7-1.24-.21-.62-.08-.79.13-.78.25-.9.32-.98.06-.64-.15-1.18-.08-.68.03-.39.12-.39.19-1 .12-1.15.02-1.37.03-.76-1.19-2.24-.43-2.29-.51-3.09 0-1-.05-.76-.1-.77-.65-1.01-.51-.43-1.29-1.2-.76-.98-.33-1.76-.48-2.43-1.01-2.94-.48-1.73" /><path d="m692.21 228.7l-2.54 1.54-3.11 2.1-2.73 1.86" /><path d="m688.97 243.39l.31 2.31.35 2.41.21.95.32 1.51.79 2.61.83 2.84.42 1.28.31.77.36.35.65.19.8.16.77.29.78.73" /><path d="m674.21 192.82l1.1.11.85.13 1.11.28 1.07.31 1.17.33.54.28.68.53.34.24.35.15.64.19.77.26.73.36.4.23.33.13-.28 1.3-.45 2.59-.41 2.55" /><path d="m714.28 213.31l.56-3.04.59-2.01.79-1.28 1.05-1.02 2.78-2.52 2.31-1.77 2.29-1.45 1.71-.7 2.3-.39 2.94-.16 2.07.11 3.82.09 2.23.36 2.28.63 1.89.62 1.92.6.86.41.43.44.41 1.03.37 2 .07.26.1.13.41.13" /><path d="m690.02 204.96l1-4.57.92-3.15 1.04-2.94.87-2 .4-.79.6-.69 1.14-.82 1.88-1.29.51-.35.56-.29.56-.14.73-.11" /><path d="m751.95 188.77l-3.43-.4-3.33-.27-3.54-.38-4.85-.63" /><path d="m740.97 240.48l-4.33-2.03-3.23-1.93-4.27-3.5-.17-.3.05-.32.85-1.72" /><path d="m685.03 203.28l-3.29 10.05-.4.76-.58.3-.99-.23-9.75-3.64" /><path d="m673.52 251.51l1.25 3.13.91 2.56.83 1.61 1.22 2.13 1.46 2.54.79 1.45.98 1.26" /><path d="m740.15 243.49l2.71-.1 1.87-.18 2.25-.37 1.87-.46.86-.4 1.01-.98.81-1.25.81-1.53" /><path d="m742.61 235.61l1.19.07 1.44.15 2.1.5 1.87.66 2.2.89.93.34 1.19.42 1.77.45 1.31.37 2.04.1.83-.25.44-.39.37-.77 1.26-1.98.64-.48.65-.37.67-.69 1.32-.86.93-.9.86-1.21.99-1.86 1.43-3.02" /><path d="m715.72 213.68l-.02 3.04.02.77.08.36.38.42 1.6 1.63 1.35 1.41 1.53 2.02.82.96.9 1.11 1.53 1.73 1.37 1.33.74.59.59.39.83.18.88.33.98.43.57.3" /><path d="m729.87 230.68l.29-.37.23-.29.19-.35.14-.46.1-1.1.12-.7.33-.61.69-.66.48-.2.73-.12 2.19.14 1.93.29 1.83.31 1.53.41 1.75.45 1.92.37" /><path d="m684.29 196.35l.48-.02.5-.12.34-.32.46-.86.53-1.3.52-1.63.29-1.33.11-.95-.13-.69-.36-.49-.61-.34-2.17-.69-4.06-1.15" /><path d="m699.55 182.28l-.23-1.48.08-1.58.19-1.92.35-3.63.29-1.72.5-2.21" /><path d="m710.52 212.19l.63-3.2.26-2.25.58-5.88.08-.89.99-7.98" /><path d="m747.64 209.14l-6.6-2.24-4.34-1.03-1.34-.18-.9-.03-.67-.01-.09.41-.08.52-.16 1.39-.2 1.03-.27.8-.48.78-.58.76-.42.67-.17.62-1.05 4.7" /><path d="m700.23 187.82l-.19-.55-.08-.79.06-.87-.06-.9-.41-2.43-1.75-.29-1.09-.41-1.56-.85-.67-.31-.67-.43-.31-.54-.2-1.21-.23-1.52-.09-1.45.09-.58.14-.37.19-.39.1-.23.07-.29.11-.4.04-.64.06-.54.1-.56.24-.67.05-.52-.05-.7-.23-.81-.11-.39.01-.45.12-.81-.01-.39.01-.28-.05-.17-.12-.12-.25-.14-1-.4-.33-.24-.17-.31-.08-.45-.16-.91.38-1.38.96-1.85" /><path d="m713.06 191.99l-1.88 0-1.69-.05-1.07-.13-.96-.3-.74-.68-.92-1.29-.67-.61-.97-.38-1.92-.34-1.13-.09-.5-.11-.38-.19" /><path d="m745.39 407.62l.44.02.24.13.21.26.29.65.03.29.01.24-.15.36-1.25 1.9" /><path d="m750.5 383.32l-.8 3.1-.87 2.57-.72 3.34-.24.67-.56 1.54-1.21 3.38-.25.69-1.86 3.74-.56 1.03-.73 1.23" /><path d="m742.06 472l.9-1.59.76-1.08 2.83-3.18 2.19-1.87.59-.5 1.49-1.14.83-.14.67-.08.34-.15.41-.41 1.65-1.67 1.4-1.26" /><path d="m707.96 420.14l-1.6-.21-1.06-.44-.45-.27-.95-1.18-.13-.3-.06-.52.05-.39.15-.61 2.67-4.33 2.2-3.2" /><path d="m730.45 387.59l-.83 1.56-1.56 2.72-.27.64-.3.81-.34 1.75" /><path d="m742.7 404.61l-1.83-.85-2.22-1.18-.54-.29-3.03-1.74" /><path d="m723.74 418.63l-5.66-3.99-4.01-2.79-.49-.28-.96-.48-3.21-1.91-.63-.49-2.15-1.71" /><path d="m729.17 429.89l2.96-4.63.09-.25-.02-.31-.09-.2-1.9-1.51-.78-.65-1.59-1.17-2.86-1.97-1.24-.57-1.19 1.54-1.18 1.45-1.67 1.81" /><path d="m728.78 429.64l-.62.86-.41.69-.8 1.57-.6 1.52-.3 1.14" /><path d="m733.08 448.62l-3.46-2.61-4.58-3.92-3.34-2.57-7.27-5.59-1.29-.88-.56-.05-.4.15-3.16 3.56" /><path d="m723.74 383.54l2.3 1.33 1.09.63 1.21.76 2.11 1.33.87.55.88.51 3.08 1.36" /><path d="m742.7 404.61l-.16.43-.11.61 0 .47.04.62.08.29.23.29.23.17.43.14.59.06 1.36-.07" /><path d="m723.65 373.61l1.08 1.09.84.8 1.56 1.1" /><path d="m723.1 376.56l3.28 1.52" /><path d="m715.47 373.77l3.29 1.13 4.34 1.66" /><path d="m708.85 388.89l-.53-.58-.34-.36-.47-.38-.68-.45-2.02-.94-3.63-2.2" /><path d="m748.08 444.9l-3.51 4.45" /><path d="m682.1 453.85l-7.5-1.08" /><path d="m698.31 456.66l.7-1.4 1.97-4.43.48-1.25.66-2.52" /><path d="m698.31 456.66l-.8 2.03" /><path d="m682.1 453.85l4.16.47 7.67 1.11 1.98.41 1.26.39 1.14.43" /><path d="m635.31 145.99l-.34.12-.34-.03-.59-.36-1.63-1.69-.6-1.01-.39-1.02-.15-.75.34-2.03.01-.68-.23-.35-1.25-.79-.89-.16-.65-.19-.91-.59-2.13-1.87-.18-.45" /><path d="m649.93 164.86l-1.32-10.21-.61-1.72-.57-1.3-.26-1.73-.19-.61-.52-.55-2.64-1.98-.67-.36-2.77-.65-1.24-.45-.6-.14-.71.03-1.04.12-1.48.68" /><path d="m635.31 145.99l0 .56-.23 1-.75 1.7-1.25 2.35-.71 1.31" /><path d="m643.82 146.76l2.34-3.58 2.9-3.96.8-1.48.4-2.05.36-2.55-.09-.67-.32-.41-.41-.08-.7.27-.85.73-.73.67-.37.12-.39-.01-.25-.11-.78-.74-.24-.42-.26-.95 0-.45.09-.47.27-1.04-.36-.93-.83-1.23" /><path d="m655.77 145.34l.77 1.07.55.51.6.2 1.05.24.55.35.91.98 2.84 3.14 1.38 1.64 1.03 1.08.83.48.86-.02 1.32-.15" /><path d="m669.57 148.62l.57-.8.81-1.32.66-1.37 1.11-1.69.61-.98.16-.46.14-.63-.09-.53-.34-.2-.42.1-.59.02-.56-.1-.83-.33-.67-.63-.53-.37-.4-.11-.51.06-.49.24-1.04 1.1-.57.66-.66.55-.44.38-.72.11-1.07.01-.99-.22-.49-.15" /><path d="m723.4 166.73l-1.62-.1-1.26-.08-1.09-.35-1.59-.75-1.69-1.31-.66-.3-.68-.13" /><path d="m758.55 146.92l-.66.12-.97.05-1-.34-.96-.64-2.26-1.38-2.95-2.17-3.72-2.84-.83-.8-.52-.53-.29-.39" /><path d="m736.85 174.22l.86-.31.34-.21.63-.07.88-.01.54-.09.58-.14.72-.33.36-.36.26-.64 1.28-4.93" /><path d="m731.99 248.89l1.84-5.55.42-1.15.27-.18.43-.01 5.2 1.49" /><path d="m728.3 247l3.69 1.89 1.75 1.33 3.84 1.47" /><path d="m726.45 237.9l1.2 1.31 3.26 2.63 2.92 1.5" /><path d="m762.8 263.7l-1.87 4.64-.25.28.02.8-.16.77-1.34 1.5-.16.35-.37 1.62.02.79.19.33 2.78 1.62 2.04.6" /><path d="m760.68 268.62l-.38-.11-5.04-2.06-6.36-2.11-.11-.24" /><path d="m750.85 259.16l-2.04 4.71-.02.23" /><path d="m757.86 209.8l1.67-2.85 1.17-2.24.61-1.74.45-1.47.28-.65.62-.92 1.26-2.34 1.58-3.13.77-2.26.23-.47.15-.23.15-.14" /><path d="m720.63 214.72l1.75-4.9.11-.49-.1-.32-.1-.34-.91-.74-4.11-1.97" /><path d="m717.04 306.34l7.65 3.01" /><path d="m714.68 289.06l.89-2.51.48-1.01.59-.67.81-.8.36-.77.36-2.35-.17-.77-.36-.48-.74-.23-3.28-.07" /><path d="m691.02 281.96l-.5-1.86-1.72-3.11-.72-.62-.62-.24-.47-.25-.82-1.38-.85-1.28-.5-.34-.99-.29-.83-.46-.45-.57-.02-.7.87-1.44.77-.77.58-.28 1.1-.03.75.3.82.52" /><path d="m693.41 299.27l5.13 2.02.32-.07.53-.34 1.69-1.68" /><path d="m644.39 185.93l.63-1.14.36-.36.67-.11 2.76-.18 2.38.05.6.13.91.49 1.78 1.06.64.17 1.02.1 3.89.19" /><path d="m628.4 187.78l1.02-.2.66.05 3.59 1.55.4.46.04.82-.21 2.5" /><path d="m657.77 200.7l-.14-1.7.19-.7.23-.56.21-1.66.19-4.82" /><path d="m635.83 205.85l.24-4.29.49-2.42.47-.35 1.03-.32 2.81-.42" /><path d="m684.31 226.39l-3.17-2.98-.1-.52.15-.49 1.15-2.09 1.02-1.3" /><path d="m752.15 411.55l1.43 1.22.43.75.18.75-.12.81-.92 2.91-.08.66.22.65 1.81 2.72 1.4 2.89.2 1.32-.12 2.21" /><path d="m745.85 398.61l10.26 5.59" /><path d="m706.58 427.41l.98.03.62.31.9.88 3.26 3.25.34.15.53-.12.9-.78 2.33-2.77 3.26-4.93" /><path d="m735.55 215.58l7.45.29 3.19.24" /><path d="m718.79 195.74l.41-2.47.06-.44.22-1.87.08-1.18-.05-1.08.12-1.68" /><path d="m733.79 205.65l-.09-4.02-.03-2.55" /><path d="m765.81 255.97l-1.17-.73-1.62-.97-1.23-.83-2.02-1.63-2.79-2.12" /><path d="m693.25 227.91l6.77-3.4" /><path d="m698.19 237.34l.14.81.16.56.44.57.71.54.43.57.28 1.22.68 3.95.61 2.72" /><path d="m693.26 240.07l1.48 5.53.29 1.35-.03.63-.23.45-.49.27-4.44.76" /><path d="m691.2 240.64l2.06-.57 2.39-.98 2.11-1.4.43-.35 1.44-1.16" /><path d="m646.78 246.09l-.14-1.17.06-1.61.15-2.09.13-2.69-.18-3.25-.76-4.3" /><path d="m655.7 218l2.9.15" /><path d="m607.79 219.58l8.24-12.8 2.04-3.6" /><path d="m586.57 232.11l1.55 1.81 2.25 1.26 7.69 3.86 9.47 6.36.96.2.84-.71 2.98-4.26 2.05-3.49 2.51-3.95 2.64-4.74 3.87-7.33 4.35-7.37" /><path d="m734.32 318.7l.78 2.4.61 1.25 1.1 1.86.77.47 1.31.24.84.19.45-1.37.6-1.3.78-1.06.44-.56" /><path d="m737.16 331.7l1.05-1.79.61-1.7.42-2.6.06-.29.43-.21.95-.05 3.91 1.19 3.46 1.05" /><path d="m722.39 209.01l.86-.34.93-.05 1.13.36 1.31.97 1.1 1.08.69.61 1.42.55 1.51.44" /><path d="m713.06 191.99l6.2.84" /><path d="m723.5 185.49l1.54.42 2.19.14 1.58.01.63.05.62.18" /><path d="m728.24 192.47l6.46.22 8.29.83 3.84.68 2.38 1.03.7.32.51.71" /><path d="m714.22 314.58l.38.18.55.11 2.25.06.5-.12.58-.18 1.03-.2.62-.12" /><path d="m729.49 347.14l4.63 2.44" /><path d="m746.21 364.66l4.25.56" /><path d="m749.71 343.91l-6.11-2.54" /><path d="m739.6 338.46l-5.48 11.12" /><path d="m746.75 355.59l-3.41 7.63-1.36 1.25-1.85.78" /><path d="m761.42 299.31l-3.4 4.17" /><path d="m758.02 303.48l-3.26 4.3" /><path d="m756.78 309.24l12.76 7.16" /><path d="m756.78 309.24l-3.29 4.47" /><path d="m726.29 368.71l-7.65-3.06" /><path d="m738.65 402.58l1.43-4.44.62-1.44.36-.49.61-.05 4.43 1.76" /><path d="m754.57 393.52l1.6.56 4.19 1.38" /><path d="m729.01 379.34l-2.97 5.53" /><path d="m728.34 386.26l2.44-4.86" /><path d="m707.93 378.14l4.48 2.89" /><path d="m759.74 593.12l-.62-12.76" /><path d="m764.65 604.71l-2.79-.04-1.49.02-.31-.24-.17-.39-.13-1.31.27-.32.41-.22 1.08-.17 2.05-.47" /><path d="m761.52 602.04l.34 2.63" /><path d="m767.13 563.11l-.1-.69-.34-.16-2.33.35" /><path d="m767.35 561.12l-3.1.58.11.91" /><path d="m764.36 562.61l.11.95.22.21 2.13-.43.31-.23" /><path d="m764.37 558.98l.33.39.66.14.33-.05 1.16-.18.24.14.06.29.2 1.41.35 2.46" /><path d="m760.68 559.2l3.3-.17.39-.05.36-.3.55-.19.27-.07 3.34-.49.28-.04 5.52-.62" /><path d="m765.49 593.37l.26-.41" /><path d="m770.97 580.14l-.73.02-.76-.06-.47-.26-.24-.94-.01-.24-.08-1.23.31-.64.12-.61-.12-3.12-3.62.25" /><path d="m770.23 363.73l-6.15-5.17-3.63-2.11-.41-.59-.07-1.52.09-1.12 3.04-4.8.06-.28-2.29-2.31" /><path d="m681.62 229.19l-2.58-2.65" /><path d="m681.87 238.49l4.15.6 1.06-.15 1.59-.44" /><path d="m690.24 258.23l2.27-.16" /><path d="m684.75 268.37l1.06-2.51.36-.35 3.16-1.93.5-.53.36-.8 0-.68-.21-2.76.26-.58 1.54-2.21" /><path d="m650.86 248.59l1.13-1.43.31-.16 3.92-1.55.82-.1" /><path d="m651.87 253.21l3.76-1.94.38-.45.43-.35 2.03-1.24" /><path d="m655.37 232.42l.64-.18.56-.06 2.93.83" /></g></g></svg>